<svg width="296" height="67" viewBox="0 0 296 67" fill="none" xmlns="http://www.w3.org/2000/svg">
<path d="M31.9062 56.3125L2.23438 0.71875H0.03125V66.9531H2.23438V15.4844L29.4688 66.625L31.625 61.9844L58.3438 5.82812L58.2969 66.9531H65.375V0.71875H58.3438L31.9062 56.3125ZM146.975 66.9531L120.35 0.71875H112.241L85.5219 66.9531H89.4594L100.287 39.625C103.803 39.8594 106.803 40.2812 109.194 40.9844C111.584 41.6875 113.834 42.4375 115.897 43.2812C117.959 44.1719 120.256 44.9688 122.741 45.6719C125.225 46.375 128.366 46.8906 132.069 47.125L140.225 66.9531H146.975ZM114.397 4.1875L131.037 44.6875C125.412 44.125 121.522 42.8125 117.912 41.3125C115.803 40.4219 113.506 39.625 110.928 38.9219C108.35 38.2188 105.069 37.75 101.131 37.5156L114.397 4.1875ZM197.028 30.0625C205.981 28.5156 210.481 24.2969 210.481 15.8594C210.481 4.28125 201.95 0.765625 185.028 0.765625H168.294V31.4219L168.341 66.9531H185.356C207.012 66.9531 217.372 58.75 217.372 47.2656C217.372 38.0781 210.762 32.1719 197.028 30.0625ZM185.216 2.92188C188.872 2.92188 192.059 3.25 194.778 3.95312C200.216 5.35938 203.403 8.875 203.403 15.6719C203.403 25.9375 196.325 29.2656 185.356 29.2656H175.419L175.372 2.92188H185.216ZM185.356 64.7031H175.419V31.4219H185.216C203.637 31.4219 210.247 36.8594 210.247 47.0781C210.247 50.5 209.45 53.5 207.856 56.1719C204.622 61.4688 197.544 64.7031 185.356 64.7031ZM295.081 66.9531L268.456 0.71875H260.347L233.628 66.9531H237.566L248.394 39.625C251.909 39.8594 254.909 40.2812 257.3 40.9844C259.691 41.6875 261.941 42.4375 264.003 43.2812C266.066 44.1719 268.363 44.9688 270.847 45.6719C273.331 46.375 276.472 46.8906 280.175 47.125L288.331 66.9531H295.081ZM262.503 4.1875L279.144 44.6875C273.519 44.125 269.628 42.8125 266.019 41.3125C263.909 40.4219 261.613 39.625 259.034 38.9219C256.456 38.2188 253.175 37.75 249.238 37.5156L262.503 4.1875Z" fill="white"/>
</svg>
