<svg width="54" height="54" viewBox="0 0 54 54" fill="none" xmlns="http://www.w3.org/2000/svg">
<path d="M12.7598 38.9246H17.7627V26.775L10.6158 21.4148V36.7806C10.6158 37.967 11.577 38.9246 12.7598 38.9246Z" fill="#4285F4"/>
<path d="M34.9152 38.9246H39.918C41.1044 38.9246 42.062 37.9634 42.062 36.7806V21.4148L34.9152 26.775" fill="#34A853"/>
<path d="M34.9152 17.4841V26.7751L42.062 21.4149V18.5562C42.062 15.9047 39.0353 14.3931 36.9163 15.9833" fill="#FBBC04"/>
<path d="M17.7627 26.7748V17.4839L26.3389 23.9161L34.9152 17.4839V26.7748L26.3389 33.207" fill="#EA4335"/>
<path d="M10.6158 18.5562V21.4149L17.7627 26.7751V17.4841L15.7615 15.9833C13.6389 14.3931 10.6158 15.9047 10.6158 18.5562Z" fill="#C5221F"/>
</svg>
