<svg width="53" height="54" viewBox="0 0 53 54" fill="none" xmlns="http://www.w3.org/2000/svg">
<path d="M21.6751 27C21.6751 24.2858 23.8354 22.0849 26.501 22.0849C29.1665 22.0849 31.3279 24.2858 31.3279 27C31.3279 29.7142 29.1665 31.9151 26.501 31.9151C23.8354 31.9151 21.6751 29.7142 21.6751 27ZM19.0658 27C19.0658 31.1814 22.3945 34.5709 26.501 34.5709C30.6074 34.5709 33.9362 31.1814 33.9362 27C33.9362 22.8186 30.6074 19.4291 26.501 19.4291C22.3945 19.4291 19.0658 22.8186 19.0658 27ZM32.4929 19.1289C32.4928 19.4788 32.5946 19.8209 32.7854 20.112C32.9762 20.403 33.2475 20.6299 33.5649 20.7639C33.8824 20.898 34.2317 20.9331 34.5688 20.865C34.9059 20.7969 35.2156 20.6285 35.4587 20.3812C35.7018 20.1338 35.8674 19.8186 35.9346 19.4754C36.0017 19.1323 35.9675 18.7765 35.8361 18.4532C35.7047 18.1298 35.4821 17.8534 35.1964 17.6589C34.9108 17.4643 34.5749 17.3604 34.2312 17.3603H34.2305C33.7699 17.3605 33.3281 17.5469 33.0023 17.8785C32.6765 18.2101 32.4933 18.6598 32.4929 19.1289ZM20.6511 39.0014C19.2394 38.9359 18.4721 38.6965 17.9622 38.4942C17.2862 38.2262 16.8038 37.907 16.2967 37.3913C15.7895 36.8756 15.4756 36.3849 15.2136 35.6966C15.0148 35.1776 14.7796 34.396 14.7155 32.9585C14.6453 31.4044 14.6313 30.9375 14.6313 27.0001C14.6313 23.0627 14.6464 22.5972 14.7155 21.0417C14.7798 19.6042 15.0166 18.8242 15.2136 18.3037C15.4768 17.6153 15.7902 17.1241 16.2967 16.6077C16.8031 16.0913 17.285 15.7717 17.9622 15.5049C18.4719 15.3025 19.2394 15.063 20.6511 14.9977C22.1774 14.9262 22.6359 14.9119 26.501 14.9119C30.366 14.9119 30.825 14.9274 32.3525 14.9977C33.7643 15.0631 34.5303 15.3044 35.0415 15.5049C35.7175 15.7717 36.1999 16.092 36.707 16.6077C37.2142 17.1234 37.5269 17.6153 37.7901 18.3037C37.9889 18.8227 38.224 19.6042 38.2882 21.0417C38.3584 22.5972 38.3724 23.0627 38.3724 27.0001C38.3724 30.9375 38.3584 31.4031 38.2882 32.9585C38.2239 34.396 37.9876 35.1773 37.7901 35.6966C37.5269 36.3849 37.2135 36.8761 36.707 37.3913C36.2006 37.9065 35.7175 38.2262 35.0415 38.4942C34.5318 38.6966 33.7643 38.936 32.3525 39.0014C30.8263 39.0729 30.3678 39.0871 26.501 39.0871C22.6342 39.0871 22.177 39.0729 20.6511 39.0014ZM20.5312 12.3451C18.9898 12.4166 17.9365 12.6655 17.0166 13.03C16.0639 13.4064 15.2575 13.9113 14.4516 14.7306C13.6457 15.5499 13.1511 16.3724 12.7814 17.3425C12.4235 18.2797 12.1791 19.3517 12.1089 20.9213C12.0375 22.4934 12.0212 22.996 12.0212 27C12.0212 31.004 12.0375 31.5066 12.1089 33.0787C12.1791 34.6484 12.4235 35.7203 12.7814 36.6575C13.1511 37.627 13.6458 38.4504 14.4516 39.2694C15.2574 40.0883 16.0639 40.5926 17.0166 40.97C17.9382 41.3345 18.9898 41.5834 20.5312 41.6548C22.0759 41.7263 22.5687 41.7441 26.501 41.7441C30.4332 41.7441 30.9268 41.7275 32.4707 41.6548C34.0123 41.5834 35.0649 41.3345 35.9853 40.97C36.9374 40.5926 37.7445 40.0887 38.5503 39.2694C39.3562 38.4501 39.8498 37.627 40.2205 36.6575C40.5784 35.7203 40.824 34.6483 40.8931 33.0787C40.9633 31.5055 40.9796 31.004 40.9796 27C40.9796 22.996 40.9633 22.4934 40.8931 20.9213C40.8229 19.3516 40.5784 18.2791 40.2205 17.3425C39.8498 16.373 39.355 15.5512 38.5503 14.7306C37.7457 13.91 36.9374 13.4064 35.9865 13.03C35.0649 12.6655 34.0121 12.4154 32.4718 12.3451C30.928 12.2737 30.4344 12.2559 26.5021 12.2559C22.5699 12.2559 22.0759 12.2725 20.5312 12.3451Z" fill="url(#paint0_radial_601_314)"/>
<path d="M21.6751 27C21.6751 24.2858 23.8354 22.0849 26.501 22.0849C29.1665 22.0849 31.3279 24.2858 31.3279 27C31.3279 29.7142 29.1665 31.9151 26.501 31.9151C23.8354 31.9151 21.6751 29.7142 21.6751 27ZM19.0658 27C19.0658 31.1814 22.3945 34.5709 26.501 34.5709C30.6074 34.5709 33.9362 31.1814 33.9362 27C33.9362 22.8186 30.6074 19.4291 26.501 19.4291C22.3945 19.4291 19.0658 22.8186 19.0658 27ZM32.4929 19.1289C32.4928 19.4788 32.5946 19.8209 32.7854 20.112C32.9762 20.403 33.2475 20.6299 33.5649 20.7639C33.8824 20.898 34.2317 20.9331 34.5688 20.865C34.9059 20.7969 35.2156 20.6285 35.4587 20.3812C35.7018 20.1338 35.8674 19.8186 35.9346 19.4754C36.0017 19.1323 35.9675 18.7765 35.8361 18.4532C35.7047 18.1298 35.4821 17.8534 35.1964 17.6589C34.9108 17.4643 34.5749 17.3604 34.2312 17.3603H34.2305C33.7699 17.3605 33.3281 17.5469 33.0023 17.8785C32.6765 18.2101 32.4933 18.6598 32.4929 19.1289ZM20.6511 39.0014C19.2394 38.9359 18.4721 38.6965 17.9622 38.4942C17.2862 38.2262 16.8038 37.907 16.2967 37.3913C15.7895 36.8756 15.4756 36.3849 15.2136 35.6966C15.0148 35.1776 14.7796 34.396 14.7155 32.9585C14.6453 31.4044 14.6313 30.9375 14.6313 27.0001C14.6313 23.0627 14.6464 22.5972 14.7155 21.0417C14.7798 19.6042 15.0166 18.8242 15.2136 18.3037C15.4768 17.6153 15.7902 17.1241 16.2967 16.6077C16.8031 16.0913 17.285 15.7717 17.9622 15.5049C18.4719 15.3025 19.2394 15.063 20.6511 14.9977C22.1774 14.9262 22.6359 14.9119 26.501 14.9119C30.366 14.9119 30.825 14.9274 32.3525 14.9977C33.7643 15.0631 34.5303 15.3044 35.0415 15.5049C35.7175 15.7717 36.1999 16.092 36.707 16.6077C37.2142 17.1234 37.5269 17.6153 37.7901 18.3037C37.9889 18.8227 38.224 19.6042 38.2882 21.0417C38.3584 22.5972 38.3724 23.0627 38.3724 27.0001C38.3724 30.9375 38.3584 31.4031 38.2882 32.9585C38.2239 34.396 37.9876 35.1773 37.7901 35.6966C37.5269 36.3849 37.2135 36.8761 36.707 37.3913C36.2006 37.9065 35.7175 38.2262 35.0415 38.4942C34.5318 38.6966 33.7643 38.936 32.3525 39.0014C30.8263 39.0729 30.3678 39.0871 26.501 39.0871C22.6342 39.0871 22.177 39.0729 20.6511 39.0014ZM20.5312 12.3451C18.9898 12.4166 17.9365 12.6655 17.0166 13.03C16.0639 13.4064 15.2575 13.9113 14.4516 14.7306C13.6457 15.5499 13.1511 16.3724 12.7814 17.3425C12.4235 18.2797 12.1791 19.3517 12.1089 20.9213C12.0375 22.4934 12.0212 22.996 12.0212 27C12.0212 31.004 12.0375 31.5066 12.1089 33.0787C12.1791 34.6484 12.4235 35.7203 12.7814 36.6575C13.1511 37.627 13.6458 38.4504 14.4516 39.2694C15.2574 40.0883 16.0639 40.5926 17.0166 40.97C17.9382 41.3345 18.9898 41.5834 20.5312 41.6548C22.0759 41.7263 22.5687 41.7441 26.501 41.7441C30.4332 41.7441 30.9268 41.7275 32.4707 41.6548C34.0123 41.5834 35.0649 41.3345 35.9853 40.97C36.9374 40.5926 37.7445 40.0887 38.5503 39.2694C39.3562 38.4501 39.8498 37.627 40.2205 36.6575C40.5784 35.7203 40.824 34.6483 40.8931 33.0787C40.9633 31.5055 40.9796 31.004 40.9796 27C40.9796 22.996 40.9633 22.4934 40.8931 20.9213C40.8229 19.3516 40.5784 18.2791 40.2205 17.3425C39.8498 16.373 39.355 15.5512 38.5503 14.7306C37.7457 13.91 36.9374 13.4064 35.9865 13.03C35.0649 12.6655 34.0121 12.4154 32.4718 12.3451C30.928 12.2737 30.4344 12.2559 26.5021 12.2559C22.5699 12.2559 22.0759 12.2725 20.5312 12.3451Z" fill="url(#paint1_radial_601_314)"/>
<defs>
<radialGradient id="paint0_radial_601_314" cx="0" cy="0" r="1" gradientUnits="userSpaceOnUse" gradientTransform="translate(15.8686 41.8834) scale(37.8043 38.4945)">
<stop offset="0.09" stop-color="#FA8F21"/>
<stop offset="0.78" stop-color="#D82D7E"/>
</radialGradient>
<radialGradient id="paint1_radial_601_314" cx="0" cy="0" r="1" gradientUnits="userSpaceOnUse" gradientTransform="translate(29.5839 43.2045) scale(29.795 30.339)">
<stop offset="0.64" stop-color="#8C3AAA" stop-opacity="0"/>
<stop offset="1" stop-color="#8C3AAA"/>
</radialGradient>
</defs>
</svg>
