<svg width="53" height="54" viewBox="0 0 53 54" fill="none" xmlns="http://www.w3.org/2000/svg">
<path d="M13.2501 39.4202L15.1514 32.2236C13.6181 29.4202 13.1309 26.1489 13.7793 23.0099C14.4277 19.8709 16.1683 17.0748 18.6815 15.1348C21.1947 13.1947 24.3121 12.2408 27.4616 12.448C30.611 12.6553 33.5813 14.0098 35.8273 16.2631C38.0734 18.5164 39.4446 21.5172 39.6892 24.715C39.9339 27.9127 39.0357 31.0929 37.1594 33.6719C35.283 36.251 32.5545 38.0558 29.4744 38.7554C26.3944 39.4549 23.1694 39.0022 20.3913 37.4803L13.2501 39.4202ZM20.7356 34.7873L21.1772 35.0536C23.1895 36.2657 25.5398 36.7673 27.8618 36.4802C30.1839 36.1931 32.3473 35.1334 34.0148 33.4663C35.6824 31.7992 36.7605 29.6184 37.0812 27.2636C37.4018 24.9087 36.9469 22.5123 35.7874 20.4476C34.628 18.383 32.829 16.7661 30.6709 15.849C28.5128 14.9319 26.1168 14.766 23.8563 15.3773C21.5958 15.9885 19.5977 17.3426 18.1735 19.2284C16.7492 21.1142 15.9788 23.4258 15.9823 25.8031C15.9804 27.7742 16.5168 29.7072 17.5318 31.3868L17.8088 31.8509L16.7458 35.8675L20.7356 34.7873Z" fill="#00D95F"/>
<path fill-rule="evenodd" clip-rule="evenodd" d="M31.4546 27.6511C31.1957 27.4389 30.8926 27.2895 30.5683 27.2143C30.244 27.1392 29.9071 27.1403 29.5832 27.2175C29.0967 27.4229 28.7823 28.1988 28.4679 28.5868C28.4016 28.6798 28.3042 28.745 28.1939 28.7702C28.0837 28.7954 27.9682 28.7789 27.8691 28.7237C26.0878 28.0147 24.5947 26.7144 23.6323 25.0342C23.5502 24.9293 23.5113 24.7962 23.5239 24.6628C23.5365 24.5294 23.5995 24.4062 23.6996 24.3191C24.0503 23.9663 24.3077 23.5293 24.4482 23.0486C24.4794 22.5184 24.3598 21.9903 24.1039 21.5272C23.906 20.8779 23.5293 20.2998 23.0185 19.8612C22.755 19.7407 22.4628 19.7004 22.1772 19.7449C21.8917 19.7895 21.6249 19.917 21.4091 20.1122C21.0344 20.4407 20.737 20.8505 20.5388 21.3113C20.3406 21.7721 20.2466 22.2722 20.2638 22.7748C20.265 23.057 20.3001 23.3381 20.3686 23.6116C20.5424 24.2688 20.8097 24.8967 21.1621 25.4754C21.4163 25.9187 21.6936 26.3478 21.9929 26.761C22.9657 28.1182 24.1885 29.2704 25.5935 30.1539C26.2985 30.6028 27.052 30.9678 27.8391 31.2417C28.6568 31.6184 29.5595 31.763 30.4515 31.6601C30.9598 31.582 31.4413 31.378 31.8538 31.0663C32.2663 30.7546 32.597 30.3446 32.817 29.8724C32.9462 29.5872 32.9854 29.2683 32.9292 28.9595C32.7945 28.3281 31.9636 27.9554 31.4546 27.6511Z" fill="#00D95F"/>
</svg>
